<svg width="350" height="332" viewBox="0 0 350 332" fill="none" xmlns="http://www.w3.org/2000/svg">
<path d="M146 8.66664C112.533 14.8 84.8 29.4666 60.6667 53.8666C46.2667 68.2666 38.1333 79.6 29.6 96.6666C11.3333 133.467 8.26667 178.533 21.4667 217.867C40.4 274.4 87.3333 315.067 146.533 326C160.667 328.533 188.133 328.667 202.933 326C234.667 320.533 265.467 304.267 288.667 280.667C334.267 234.667 348 165.467 323.333 106C302.267 54.9333 256.533 18.1333 202.667 8.66664C188.933 6.26664 159.067 6.26664 146 8.66664ZM197.333 14.6666C218 17.6 241.467 26.6666 260 38.9333C271.867 46.6666 293.067 67.4666 301.333 79.4666C310.4 92.6666 319.067 111.2 323.333 126.667C328.133 143.733 329.467 177.333 326.133 194.8C318.667 234.667 296.8 269.067 263.6 293.2C238.933 311.2 206.933 321.333 174.8 321.333C61.6 321.333 -13.3333 204.133 34.5333 101.867C48.6667 71.7333 74.9333 44.6666 104.667 29.7333C116.133 23.8666 134.933 17.4666 146.667 15.3333C158.4 13.2 185.067 12.8 197.333 14.6666Z" fill="#FEFEF4"/>
<path d="M140.933 34.2667C140.4 34.6667 140 61.7333 140 94.2667V153.333H126.667H113.333V95.8667C113.333 41.7333 113.2 38.4 111.067 39.3333C109.733 39.7333 104.8 42.4 100 45.0667L91.3333 50L101.067 50.4L110.667 50.8V62.6667V74.6667H100.667H90.6667V115.333V156H160.533H230.4L230.933 166.8C231.2 172.667 231.067 177.867 230.8 178.133C230.533 178.4 198.8 178.667 160.4 178.667H90.6667V231.2V283.6L95.7333 286.933C100.933 290.4 111.333 296 112.667 296C113.067 296 113.333 270.267 113.333 238.667V181.333H126.667H140L140.267 240.933L140.667 300.667L183.333 301.067L225.867 301.333L235.733 296.667C317.733 257.733 343.067 151.867 287.467 79.6L283.733 74.6667H213.867H144V62.6667V50.6667H200.4C256.667 50.6667 256.667 50.6667 253.333 48C251.467 46.5333 244.533 42.6667 238 39.3333L226 33.3333H183.867C160.667 33.3333 141.333 33.7333 140.933 34.2667Z" fill="#FEFEF4"/>
<path d="M58.1333 84C38.4 110.4 28.4 148.267 32 182C34.6667 206.8 45.0667 233.467 59.0667 252L64.6667 259.333L65.0667 212.933C65.2 187.333 65.2 146 65.0667 120.933L64.6667 75.3333L58.1333 84Z" fill="#FEFEF4"/>
</svg>
